<?xml version="1.0" encoding="UTF-8"?>
<svg width="104px" height="100px" viewBox="0 0 104 100" version="1.1" xmlns="http://www.w3.org/2000/svg" xmlns:xlink="http://www.w3.org/1999/xlink">
    <!-- Generator: Sketch 50.2 (55047) - http://www.bohemiancoding.com/sketch -->
    <title>Logo EE</title>
    <desc>Created with Sketch.</desc>
    <defs></defs>
    <g id="Symbols" stroke="none" stroke-width="1" fill="none" fill-rule="evenodd">
        <g id="Footer-/-Normal" transform="translate(-178.000000, -40.000000)" fill="#000">
            <g id="Footer">
                <g id="Contact" transform="translate(40.000000, 0.000000)">
                    <g id="Logo-EE" transform="translate(138.000000, 40.000000)">
                        <path d="M44.3896972,38.013571 L40.6976047,38.013571 L40.6976047,40.4361443 L44.2455277,40.4361443 L44.2455277,41.6598834 L40.6976047,41.6598834 L40.6976047,44.3790521 L44.3896972,44.3790521 L44.3896972,45.6152437 L39.2964567,45.6152437 L39.2964567,36.7886998 L44.3896972,36.7886998 L44.3896972,38.013571 Z M52.1430915,42.5766123 L52.1329546,42.6852885 L47.535297,42.6852885 C47.5578235,43.2648948 47.7324038,43.7188443 48.0601643,44.0346845 C48.4115776,44.3720335 48.9285607,44.542972 49.5987239,44.542972 C49.7913254,44.542972 49.9816743,44.5350477 50.1652653,44.5203312 C50.3556141,44.5056146 50.5392051,44.4852378 50.7126591,44.4592008 C50.8906184,44.4331638 51.0584408,44.4037307 51.2206315,44.3697694 C51.378317,44.3403362 51.5303709,44.3029788 51.6666561,44.2656214 L51.8175837,44.2226037 L51.8175837,45.4089854 L51.7308567,45.4327583 C51.4166121,45.5233218 51.0584408,45.5957726 50.6653534,45.6501107 C50.2722661,45.7055808 49.8589049,45.7350139 49.4365331,45.7350139 C48.8621075,45.7350139 48.360893,45.6546388 47.9430265,45.4972848 C47.5206548,45.3365346 47.1692414,45.0999375 46.9000498,44.7976818 C46.6297319,44.4942942 46.4292461,44.1184557 46.2985924,43.6803548 C46.172444,43.2490462 46.1093698,42.7543432 46.1093698,42.2109622 C46.1093698,41.7332398 46.1769493,41.2781583 46.3121083,40.8570381 C46.4495199,40.4302577 46.6533847,40.049891 46.9158184,39.7261266 C47.1827573,39.40123 47.5105178,39.139728 47.8945946,38.9506767 C48.2764187,38.7593613 48.7190643,38.6631376 49.2078892,38.6631376 C49.6775666,38.6631376 50.1021911,38.7389845 50.4682466,38.8872823 C50.8388075,39.0401081 51.1519257,39.2563285 51.4030962,39.5325471 C51.6542666,39.8065016 51.8479944,40.1472468 51.9786481,40.5411979 C52.1047965,40.9283568 52.168997,41.3698538 52.168997,41.8498403 C52.168997,42.0139867 52.1667443,42.152096 52.1644917,42.2607722 C52.1599864,42.3728445 52.1532284,42.4781245 52.1430915,42.5766123 Z M47.5465602,41.5656974 C47.5724657,41.3347605 47.622024,41.1174081 47.6974877,40.9193005 C47.7842147,40.6872316 47.8968472,40.4868598 48.0365115,40.3238456 C48.1727968,40.1608313 48.3372402,40.0351745 48.5253364,39.9468751 C48.7123063,39.8574436 48.9251817,39.8132939 49.154952,39.8132939 C49.4241436,39.8132939 49.6629244,39.8585757 49.8656629,39.9502712 C50.0661487,40.0419667 50.2362237,40.1698876 50.3680037,40.3295058 C50.504289,40.4925201 50.6056582,40.6894956 50.6687324,40.9136403 C50.726175,41.1106159 50.7543331,41.3302323 50.7520805,41.5656974 L47.5465602,41.5656974 Z M57.4381694,44.3216575 C57.662308,44.1960007 57.7715615,44.0194019 57.7715615,43.7873329 L57.7186243,43.5190386 L57.5294017,43.2937619 C57.4280325,43.2145189 57.2692207,43.1318797 57.0507137,43.0447123 C56.8277014,42.9541489 56.5145831,42.8488688 56.1237484,42.7322683 C55.8230197,42.6428369 55.5414385,42.5409529 55.2902681,42.4288806 C55.0267081,42.3122801 54.7991905,42.1730388 54.6110943,42.0134206 C54.4162401,41.8504064 54.2608073,41.6568269 54.1493012,41.4372104 C54.0355424,41.2153299 53.9803524,40.9515637 53.9803524,40.6538363 C53.9803524,40.4545966 54.0254054,40.2372442 54.1143851,40.0051753 C54.2056174,39.7697102 54.3633029,39.5489617 54.5795572,39.3497221 C54.7946852,39.1527465 55.0875297,38.9863361 55.4513326,38.8561511 C55.9829578,38.6648357 56.7060583,38.6184219 57.6645607,38.7055893 C57.9754263,38.7338903 58.3076921,38.7825682 58.6579791,38.853887 L58.7525904,38.8731317 L58.7525904,40.1410205 L58.6072945,40.1059272 C58.2581338,40.0198919 57.9191101,39.9553654 57.6026128,39.9134798 C56.926818,39.8263124 56.4312351,39.8398969 56.094464,39.9157439 C55.9165047,39.9553654 55.7712088,40.0108355 55.6619553,40.0798902 L55.4434483,40.3040348 L55.3792478,40.5813855 L55.4378167,40.8519439 C55.4738591,40.9289229 55.5470702,41.0081659 55.654071,41.0862769 C55.7700825,41.1689161 55.9356522,41.2560835 56.1496539,41.3421188 C56.3659083,41.4304182 56.6542474,41.5266419 57.006787,41.6307899 C57.398748,41.7462583 57.7343928,41.8685191 58.0047108,41.9953079 C58.279534,42.1243609 58.5081779,42.2703945 58.6816319,42.4334088 C58.8607176,42.5986872 58.9924976,42.7888705 59.070214,42.9971665 C59.1456777,43.2043305 59.1862254,43.4386635 59.1862254,43.6956374 C59.1862254,43.9412909 59.1422988,44.1665675 59.0566981,44.3658072 C58.9722237,44.5650469 58.8573386,44.7416457 58.713169,44.8910754 C58.5689995,45.0439013 58.4023034,45.1740863 58.2130808,45.2793664 C58.0328689,45.3823824 57.8323831,45.4695497 57.6217603,45.5386044 C57.4133903,45.6053949 57.1960096,45.6563369 56.9775026,45.68577 C56.7589956,45.7174673 56.5427412,45.7344479 56.3332448,45.7344479 C55.8872202,45.7344479 55.4704801,45.7140711 55.0942876,45.6744496 C54.7192215,45.6348281 54.346408,45.5691696 53.9848577,45.4808702 L53.8947518,45.4582293 L53.8947518,44.1563792 L54.0456793,44.1993968 C54.4241244,44.3069409 54.8036958,44.3907122 55.1742567,44.4461823 C55.5414385,44.5016524 55.9165047,44.5299535 56.2881918,44.5299535 C56.8085539,44.5299535 57.1960096,44.4597668 57.4381694,44.3216575 Z M62.3141419,43.3017994 L62.3141419,39.9769874 L60.4782325,39.9769874 L60.4782325,38.7804173 L62.3141419,38.7804173 L62.3141419,36.9940525 L63.6893844,36.6363268 L63.6893844,38.7804173 L66.6381026,38.7804173 L66.6381026,39.9769874 L63.6893844,39.9769874 L63.6893844,43.2101039 C63.6893844,43.6482048 63.8020169,43.9753654 64.0272818,44.1836614 C64.3550423,44.4904452 64.9407312,44.5583678 65.7257795,44.4553519 C65.973571,44.4225226 66.2314993,44.3704486 66.4894277,44.303658 L66.6381026,44.2663006 L66.6381026,45.497964 L66.5479966,45.5206049 C66.2844366,45.5873955 66.011866,45.6360733 65.7336638,45.6643744 C65.4577142,45.6926755 65.1727541,45.7073921 64.8844149,45.7073921 C64.0317871,45.7073921 63.3852767,45.5081524 62.959526,45.1142012 C62.5315225,44.717986 62.3141419,44.1066824 62.3141419,43.3017994 Z M74.0514594,44.4244471 L74.0514594,45.6153569 L68.5538683,45.6153569 L68.5538683,44.4244471 L70.7096539,44.4244471 L70.7096539,39.9641953 L68.76787,39.9641953 L68.76787,38.7812098 L72.0961597,38.7812098 L72.0961597,44.4244471 L74.0514594,44.4244471 Z M70.5042123,37.753201 C70.4141063,37.6603734 70.3431478,37.5516972 70.2913369,37.4283045 C70.2372733,37.3026476 70.2113678,37.1724626 70.2113678,37.0332213 C70.2113678,36.8894517 70.239526,36.7558706 70.2924632,36.6347419 C70.3408952,36.5147453 70.4141063,36.4060691 70.5042123,36.3132415 C70.5954446,36.2192819 70.7046981,36.144567 70.8263411,36.091361 C71.0763852,35.987213 71.3771139,35.988345 71.6260317,36.091361 C71.7488011,36.144567 71.8546756,36.2192819 71.9470343,36.3109774 C72.0393929,36.4083332 72.112604,36.5158773 72.1621623,36.6347419 C72.2162259,36.7558706 72.2421314,36.8883197 72.2421314,37.0332213 C72.2421314,37.1735947 72.2162259,37.3026476 72.1644149,37.4283045 C72.112604,37.5483011 72.0393929,37.6592414 71.9481606,37.753201 C71.8569283,37.8471606 71.7488011,37.9218755 71.6260317,37.9739495 C71.502136,38.0260235 71.366977,38.0520605 71.2273128,38.0520605 C71.0865222,38.0520605 70.9513632,38.0260235 70.8263411,37.9739495 C70.7046981,37.9218755 70.5954446,37.8471606 70.5042123,37.753201 Z M44.684569,52.5847833 L42.7157534,52.5847833 L42.7157534,58.9502644 L44.684569,58.9502644 L44.684569,60.186456 L39.3345265,60.186456 L39.3345265,58.9502644 L41.3033422,58.9502644 L41.3033422,52.5847833 L39.3345265,52.5847833 L39.3345265,51.3599121 L44.684569,51.3599121 L44.684569,52.5847833 Z M52.1310398,60.1862296 L50.754671,60.1862296 L50.754671,55.8561629 C50.754671,55.36712 50.667944,55.0059981 50.49449,54.7829856 C50.3244149,54.5633691 50.0754972,54.455825 49.7308418,54.455825 C49.6046934,54.455825 49.4796714,54.4762017 49.356902,54.5146912 C49.2397642,54.5509166 49.1102369,54.6177072 48.9762042,54.7139309 C48.8387926,54.8124187 48.6912441,54.9437357 48.5256743,55.1169384 C48.3623572,55.2856129 48.1843979,55.4927769 47.9929227,55.7327701 L47.9929227,60.1862296 L46.6188065,60.1862296 L46.6188065,53.3520825 L47.865648,53.3520825 L47.9016904,54.2362085 C48.0289651,54.0992312 48.1528608,53.9792346 48.2756302,53.8750866 C48.4592212,53.7188646 48.6439384,53.5920757 48.8218977,53.4981161 C49.0054887,53.4007603 49.1935849,53.3305736 49.3805548,53.2909521 C49.5652721,53.2524626 49.7601262,53.2332179 49.9583594,53.2332179 C50.6668177,53.2332179 51.2142115,53.4505702 51.583646,53.8750866 C51.9474489,54.2962068 52.1310398,54.9312833 52.1310398,55.7644673 L52.1310398,60.1862296 Z M56.5571582,51.2078787 L56.5571582,53.3519692 L59.5058764,53.3519692 L59.5058764,54.5496714 L56.5571582,54.5496714 L56.5571582,57.7816558 C56.5571582,58.2186247 56.6720433,58.5469173 56.8961819,58.7552133 C57.2239424,59.0619971 57.8107576,59.1299197 58.5946797,59.0269038 C58.8413448,58.9929425 59.0981468,58.9431326 59.3583278,58.8752099 L59.5058764,58.8367205 L59.5058764,60.0695159 L59.4168967,60.0921568 C59.1555894,60.1566833 58.8807661,60.2076252 58.6014376,60.2359263 C58.3243617,60.2642274 58.0394016,60.2778119 57.7533151,60.2778119 C56.9029399,60.2778119 56.2553032,60.0774402 55.8295524,59.6846211 C55.401549,59.2895379 55.1819157,58.6793664 55.1819157,57.8722193 L55.1819157,54.5496714 L53.34488,54.5496714 L53.34488,53.3519692 L55.1819157,53.3519692 L55.1819157,51.5656045 L56.5571582,51.2078787 Z M66.3552824,54.1037594 C66.6075792,54.378846 66.8001807,54.717327 66.9308344,55.1135423 C67.0581091,55.5018332 67.1223096,55.9421982 67.1223096,56.4210526 C67.1223096,56.585199 67.1200569,56.7221762 67.1144253,56.8331165 C67.1110463,56.9451888 67.1042884,57.0504689 67.0952778,57.1478246 L67.0862672,57.2565008 L62.4886096,57.2565008 C62.5100097,57.8372392 62.6857164,58.2911886 63.0123506,58.6058968 C63.3626376,58.9421137 63.880747,59.1141843 64.5520365,59.1141843 C64.7491433,59.1141843 64.9338606,59.1073921 65.1174515,59.0915435 C65.3044214,59.0768269 65.4880124,59.0564501 65.6659717,59.0315452 C65.8428047,59.0055082 66.0117534,58.974943 66.1739441,58.9421137 C66.3395139,58.9081524 66.4893151,58.8741911 66.6177161,58.8368337 L66.7686436,58.793816 L66.7686436,59.9801977 L66.6830429,60.0051026 C66.3620404,60.0945341 66.0049954,60.1681169 65.6175397,60.222455 C65.2233261,60.2767931 64.8088386,60.3050942 64.3875931,60.3050942 C63.8165465,60.3050942 63.3130793,60.2258511 62.8963391,60.067365 C62.4739674,59.9066149 62.1236804,59.6722818 61.8522361,59.3688941 C61.5819182,59.0655065 61.3791797,58.6908 61.2507787,58.2526992 C61.123504,57.8202585 61.0604298,57.3266875 61.0604298,56.7821745 C61.0604298,56.3067162 61.1302619,55.8527667 61.2642946,55.4293824 C61.4028325,55.0003379 61.605571,54.6211033 61.8680046,54.2996029 C62.1349436,53.9713103 62.4627041,53.7109403 62.8467808,53.521889 C63.2308576,53.3305736 63.6712506,53.2343499 64.1589492,53.2343499 C64.6297529,53.2343499 65.053251,53.3090648 65.4215592,53.4584946 C65.7898674,53.6113204 66.104112,53.8275408 66.3552824,54.1037594 Z M62.4976202,56.1380417 C62.5235256,55.9082369 62.5753366,55.6908845 62.649674,55.4893808 C62.736401,55.2573118 62.8501598,55.0569401 62.9886978,54.8939258 C63.1261094,54.7320436 63.2894265,54.6063868 63.478649,54.5169553 C63.6656189,54.4286559 63.877368,54.3845062 64.1082646,54.3845062 C64.3774562,54.3845062 64.6151107,54.43092 64.8155965,54.5214835 C65.0172086,54.613179 65.1872837,54.7399679 65.3213163,54.899586 C65.4564753,55.0637324 65.5578445,55.2595759 65.6209187,55.4848526 C65.6783613,55.6806961 65.7065194,55.9003126 65.7065194,56.1380417 L62.4976202,56.1380417 Z M72.4499383,53.2336707 C73.1651545,53.2336707 73.7170536,53.4713998 74.0876145,53.94233 C74.4559226,54.4053358 74.6282503,55.0936183 74.6023449,55.9913289 L74.5989659,56.1056653 L73.2113338,56.1056653 L73.2147128,55.9845366 C73.2248497,55.4332314 73.1493859,55.034752 72.9838162,54.7970229 C72.8250044,54.5683501 72.5974868,54.4562778 72.2854949,54.4562778 C72.1458306,54.4562778 72.008419,54.4823148 71.8631231,54.5321247 C71.7223325,54.5808026 71.5725313,54.6657058 71.4182248,54.7777782 C71.2582867,54.8977748 71.089338,55.0472045 70.9136313,55.2294635 C70.7446826,55.4037983 70.5565864,55.6188865 70.3594795,55.8713323 L70.3594795,60.1866824 L68.9718475,60.1866824 L68.9718475,53.3514032 L70.2445944,53.3514032 L70.2704999,54.3781668 C70.5982604,54.0170449 70.9282735,53.7442224 71.2515287,53.5630954 C71.6434898,53.3434789 72.0478403,53.2336707 72.4499383,53.2336707 Z M79.407021,53.2336707 C80.1143529,53.2336707 80.6583678,53.448759 81.0278023,53.8755394 C81.3938578,54.2955276 81.5785751,54.930604 81.5785751,55.7649202 L81.5785751,60.1866824 L80.2022062,60.1866824 L80.2022062,55.8554837 C80.2022062,55.3675729 80.1143529,55.0053189 79.9420252,54.7834384 C79.7708239,54.5638219 79.5219061,54.4562778 79.178377,54.4562778 C79.049976,54.4562778 78.9238276,54.4766546 78.8055635,54.514012 C78.6850468,54.5525015 78.5566458,54.61816 78.4214868,54.7143837 C78.2840752,54.8128715 78.1320214,54.9487167 77.9732096,55.1162592 C77.8143978,55.2815376 77.6398174,55.4830413 77.4393316,55.7320909 L77.4393316,60.1866824 L76.0640891,60.1866824 L76.0640891,53.3514032 L77.3098043,53.3514032 L77.346973,54.2377934 C77.475374,54.099684 77.6003961,53.9796874 77.7220391,53.8755394 C77.9090091,53.7170533 78.0937263,53.5902644 78.269433,53.4963048 C78.4485186,53.4012131 78.6354885,53.3310264 78.8258374,53.2914049 C79.011681,53.2529154 79.2065352,53.2336707 79.407021,53.2336707 Z M88.4395823,54.1037594 C88.6930053,54.378846 88.8856069,54.717327 89.0162605,55.1112782 C89.1412826,55.5007012 89.2077357,55.9421982 89.2077357,56.4210526 C89.2077357,56.585199 89.2054831,56.7221762 89.2009778,56.8319845 C89.1964725,56.9463209 89.1885882,57.0504689 89.1784513,57.1489567 L89.1683144,57.2565008 L84.5717831,57.2565008 C84.5943096,57.8372392 84.7700162,58.2911886 85.0977767,58.6058968 C85.4491901,58.9421137 85.9661731,59.1141843 86.6374627,59.1141843 C86.8334432,59.1141843 87.0181604,59.1073921 87.2028777,59.0915435 C87.380837,59.0779589 87.5655543,59.0564501 87.7513978,59.0315452 C87.9271045,59.0043761 88.0960532,58.974943 88.258244,58.9421137 C88.4204347,58.9104165 88.566857,58.8753231 88.7031423,58.8368337 L88.8540698,58.793816 L88.8540698,59.9801977 L88.7673428,60.0051026 C88.4508455,60.0945341 88.0904216,60.1669849 87.7040922,60.222455 C87.3076259,60.2767931 86.8931384,60.3050942 86.4741456,60.3050942 C85.89972,60.3050942 85.3985055,60.2247191 84.9817653,60.066233 C84.5593935,59.9066149 84.2079802,59.6722818 83.9365359,59.3677621 C83.6684706,59.0666385 83.4646059,58.6908 83.3373312,58.2526992 C83.2089301,57.8225226 83.145856,57.3289516 83.145856,56.7821745 C83.145856,56.3067162 83.2134354,55.8527667 83.3497207,55.4293824 C83.4882587,54.9980738 83.6921235,54.6188392 83.9556835,54.2996029 C84.2181171,53.9735744 84.5481303,53.7109403 84.932207,53.521889 C85.3151574,53.3305736 85.7544241,53.2343499 86.2443753,53.2343499 C86.7185581,53.2343499 87.1420562,53.3090648 87.5069854,53.4584946 C87.8741672,53.6101884 88.1872855,53.8264087 88.4395823,54.1037594 Z M84.5830463,56.1380417 C84.6100781,55.9014446 84.6607627,55.6874884 84.7362265,55.4893808 C84.8207009,55.2595759 84.935586,55.0592042 85.0741239,54.8939258 C85.2115355,54.7331756 85.3737263,54.6063868 85.5618225,54.5169553 C85.7499188,54.4286559 85.9627942,54.3845062 86.1936907,54.3845062 C86.4606297,54.3845062 86.6994105,54.43092 86.9032753,54.5214835 C87.1026348,54.613179 87.2727098,54.7399679 87.4056162,54.899586 C87.5396488,55.0614683 87.641018,55.2573118 87.7085975,55.4848526 C87.7637874,55.6818282 87.7930719,55.9014446 87.7908192,56.1380417 L84.5830463,56.1380417 Z M93.365113,51.2078787 L93.365113,53.3508372 L96.3138312,53.3508372 L96.3138312,54.5496714 L93.365113,54.5496714 L93.365113,57.7816558 C93.365113,58.2174926 93.4788718,58.5457852 93.7041368,58.7552133 C94.0307709,59.0619971 94.6209651,59.1287877 95.4015082,59.0269038 C95.6492996,58.9929425 95.9061016,58.9431326 96.1651563,58.8752099 L96.3138312,58.8367205 L96.3138312,60.0695159 L96.2248516,60.0921568 C95.9601652,60.1578153 95.685342,60.2076252 95.4082661,60.2347943 C95.1356955,60.2642274 94.8518617,60.2778119 94.5612699,60.2778119 C93.7108947,60.2778119 93.063258,60.0774402 92.6375072,59.6857531 C92.2083775,59.2895379 91.9909968,58.6793664 91.9909968,57.8722193 L91.9909968,54.5496714 L90.1539612,54.5496714 L90.1539612,53.3508372 L91.9909968,53.3508372 L91.9909968,51.5656045 L93.365113,51.2078787 Z M100.180166,52.3238473 C100.09006,52.2310197 100.016849,52.1223435 99.9672908,51.9989507 C99.9143535,51.8721619 99.8895744,51.7431089 99.8895744,51.6049996 C99.8895744,51.4623621 99.9154798,51.3287809 99.9672908,51.2065202 C100.019102,51.0842595 100.09006,50.9767154 100.180166,50.8838878 C100.272525,50.7899282 100.380652,50.7163454 100.503421,50.6620073 C100.750086,50.5601233 101.057573,50.5601233 101.301986,50.6620073 C101.424755,50.7163454 101.532882,50.7910602 101.624114,50.8838878 C101.715347,50.9778474 101.788558,51.0853916 101.839243,51.2053882 C101.89218,51.3265169 101.916959,51.460098 101.916959,51.6049996 C101.916959,51.7442409 101.89218,51.875558 101.839243,51.9989507 C101.788558,52.1200794 101.715347,52.2298876 101.625241,52.3238473 C101.537387,52.4178069 101.428134,52.4925218 101.301986,52.5457278 C101.179216,52.5966698 101.044057,52.6227068 100.90214,52.6227068 C100.76135,52.6227068 100.626191,52.5966698 100.504548,52.5457278 C100.376147,52.4913897 100.271398,52.4178069 100.180166,52.3238473 Z M101.772902,58.9967914 L103.727075,58.9967914 L103.727075,60.1865692 L98.2294843,60.1865692 L98.2294843,58.9967914 L100.387523,58.9967914 L100.387523,54.5365397 L98.443486,54.5365397 L98.443486,53.35129 L101.772902,53.35129 L101.772902,58.9967914 Z M44.4282175,70.7549886 C44.6467245,70.9497001 44.8269365,71.181769 44.9620955,71.4432711 C45.0995071,71.7093013 45.1682129,72.0262735 45.1682129,72.3839993 C45.1682129,72.8107798 45.0803596,73.1911464 44.9057792,73.5149109 C44.7300726,73.8352792 44.4856601,74.1069697 44.1736681,74.3197939 C43.8673078,74.5326181 43.493368,74.6922362 43.0664909,74.7952522 C42.6429928,74.8971361 42.1710627,74.9503421 41.6642166,74.9503421 C41.436699,74.9503421 41.2069288,74.9390217 40.9771585,74.9220411 C40.7214828,74.9016643 40.5131127,74.8824195 40.3227638,74.8563825 C40.1166464,74.8303455 39.9184132,74.7986483 39.7314433,74.763555 C39.5377155,74.7250655 39.3721457,74.687708 39.2268498,74.6492186 L39.1389965,74.6254456 L39.1389965,73.2319 L39.2989346,73.2930303 C39.6120529,73.4107629 39.9747295,73.5069866 40.3790801,73.5760412 C40.777799,73.6450959 41.2384658,73.6790572 41.7475646,73.6790572 C42.1102412,73.6790572 42.4233595,73.6507561 42.6790352,73.5941539 C42.9257003,73.5386838 43.1295651,73.4571766 43.2872506,73.3485005 C43.4359254,73.2466165 43.5451789,73.1186956 43.6105058,72.973794 C43.6803379,72.8232322 43.715254,72.6477655 43.715254,72.4519219 C43.715254,72.244758 43.6600641,72.0738194 43.5485579,71.9300498 C43.4257885,71.777224 43.2658504,71.6368506 43.0721225,71.517986 C42.8660051,71.3911971 42.6317296,71.2745966 42.3749275,71.1727127 C42.1046096,71.0651685 41.8309127,70.9553603 41.5527105,70.8410239 C41.2711293,70.7266875 40.9929271,70.5987666 40.7237354,70.4651854 C40.4500385,70.3282082 40.2011208,70.1640618 39.9837401,69.9750106 C39.7629804,69.7859593 39.5838948,69.5584185 39.4498621,69.3003126 C39.3124505,69.0376785 39.2426184,68.7252344 39.2426184,68.3709048 C39.2426184,68.0629889 39.3079452,67.7562051 39.4363463,67.4562136 C39.5647473,67.156222 39.7663594,66.8867956 40.0378037,66.6535947 C40.3047426,66.4237898 40.6505243,66.2358706 41.0672645,66.0966292 C41.481752,65.9573879 41.9795875,65.8860691 42.5438762,65.8860691 C42.6936774,65.8860691 42.8547419,65.8928614 43.0225642,65.9053138 C43.1926393,65.9200304 43.364967,65.9381431 43.5406736,65.9641801 C43.711875,65.986821 43.885329,66.0151221 44.0542777,66.0468193 C44.2232264,66.0773845 44.3831645,66.1090817 44.5273341,66.1464391 L44.6174401,66.167948 L44.6174401,67.4709301 L44.4665126,67.4279125 C44.1466363,67.3350849 43.8132442,67.26037 43.4753468,67.2105601 C43.1419547,67.1607502 42.8209521,67.1358452 42.5202234,67.1358452 C41.8815973,67.1358452 41.4085409,67.2411253 41.1168228,67.4494213 C40.8341153,67.649793 40.6967036,67.9124271 40.6967036,68.2531723 C40.6967036,68.4603362 40.7507672,68.6324069 40.8656524,68.7761764 C40.9839165,68.9335305 41.1404756,69.0705077 41.3409614,69.1972966 C41.5414472,69.3240855 41.7768491,69.440686 42.0381564,69.544834 L42.2487791,69.6308693 C42.4492649,69.7123764 42.6531297,69.7927515 42.8569945,69.8776548 C43.14646,69.9965194 43.4257885,70.1233083 43.6859695,70.2568894 C43.9607928,70.3938667 44.2108369,70.5625412 44.4282175,70.7549886 Z M48.7112926,66.0045941 L50.4762435,66.0045941 L53.3528769,74.831138 L51.8334648,74.831138 L51.2398917,72.9576058 L47.8552858,72.9576058 L47.2538284,74.831138 L45.7941115,74.831138 L48.7112926,66.0045941 Z M48.2641417,71.6750004 L49.5492783,67.5962474 L50.8299095,71.6750004 L48.2641417,71.6750004 Z" id="Combined-Shape"></path>
                        <path d="M24.5294382,56.502673 L21.1099163,53.0680527 C18.9834152,55.1510129 16.8535351,56.26834 13.8642692,56.26834 C9.90411139,56.26834 6.85627663,53.8197297 6.14443939,49.4285326 L23.7669164,49.4285326 L25.9429758,47.2436884 C25.8630067,43.8951035 24.9765892,40.7706632 23.2983653,38.3209208 L41.6754798,24.2099975 C44.1466363,26.6925691 47.5988217,28.1246042 51.5015369,28.1246042 C56.3008067,28.1246042 59.7462341,26.2318273 62.2680752,23.3043626 L58.8485533,19.8708744 C56.7220521,21.9527025 54.592172,23.0711616 51.6029062,23.0711616 C47.6427484,23.0711616 44.5937873,20.6214193 43.8842027,16.2313542 L61.5066797,16.2313542 L63.6816127,14.0465101 C63.5002745,6.45162964 59.1887033,0.000113204359 50.8415106,0.000113204359 C43.1734918,0.000113204359 37.7401012,6.32936893 37.7401012,14.0872637 C37.7401012,17.2479294 38.596108,20.0214362 40.0783514,22.2526941 L21.6606891,36.3953147 C19.5679777,34.4085782 16.7149971,33.1984236 13.1017474,33.1984236 C5.4348548,33.1984236 0.000337897424,39.5265473 0.000337897424,47.284442 C0.000337897424,55.6559044 5.99238555,61.3217825 13.7629,61.3217825 C15.1550374,61.3217825 16.4199001,61.1463158 17.5957831,60.8485883 L30.157683,85.4105381 L32.3968166,84.2547216 L19.9982338,60.0108761 C21.7755742,59.1720318 23.2679545,57.9664053 24.5294382,56.502673 M50.790826,5.05242376 C54.8534794,5.05242376 57.1894769,8.16667568 57.5949538,12.1469409 L43.8335181,12.1469409 C44.3921751,7.96290783 47.0322803,5.05242376 50.790826,5.05242376 M13.0521891,38.2507341 C17.1148424,38.2507341 19.4508399,41.363854 19.8574432,45.3452513 L6.09375478,45.3452513 C6.65241185,41.1600862 9.29364338,38.2507341 13.0521891,38.2507341" id="Fill-36"></path>
                        <path d="M43.4548477,90.938307 C43.4548477,95.8479801 39.4946899,99.8282453 34.6086931,99.8282453 C29.724949,99.8282453 25.7647912,95.8479801 25.7647912,90.938307 C25.7647912,86.029766 29.724949,82.0472366 34.6086931,82.0472366 C39.4946899,82.0472366 43.4548477,86.029766 43.4548477,90.938307" id="Fill-38"></path>
                    </g>
                </g>
            </g>
        </g>
    </g>
</svg>