<?xml version="1.0" encoding="UTF-8"?>
<svg width="155px" height="40px" viewBox="0 0 155 40" version="1.1" xmlns="http://www.w3.org/2000/svg" xmlns:xlink="http://www.w3.org/1999/xlink">
    <!-- Generator: Sketch 50.2 (55047) - http://www.bohemiancoding.com/sketch -->
    <title>Logo Hor EE</title>
    <desc>Created with Sketch.</desc>
    <defs></defs>
    <g id="Pages" stroke="none" stroke-width="1" fill="none" fill-rule="evenodd">
        <g id="Index-Public-Mobile" transform="translate(-20.000000, -20.000000)">
            <g id="Header" transform="translate(20.000000, 20.000000)">
                <g id="Logo-Hor-EE">
                    <path d="M98.1569472,8.67208754 L98.1569472,9.84686869 L93.2810112,9.84686869 L93.2810112,1.45771044 L98.1569472,1.45771044 L98.1569472,2.62252525 L94.6226112,2.62252525 L94.6226112,4.92474747 L98.0184192,4.92474747 L98.0184192,6.08707071 L94.6226112,6.08707071 L94.6226112,8.67208754 L98.1569472,8.67208754 Z M100.558474,9.07086532 C100.300138,8.78184175 100.10545,8.42554545 99.9831456,8.00945118 C99.8633376,7.59958586 99.7996896,7.12992256 99.7996896,6.6116734 C99.7996896,6.15820539 99.8683296,5.72716162 99.9956256,5.32477104 C100.127914,4.91988889 100.322602,4.55860943 100.572202,4.25089899 C100.828042,3.94069697 101.142538,3.6940303 101.508202,3.51339057 C101.873866,3.33150505 102.299434,3.24056229 102.766186,3.24056229 C103.214218,3.24056229 103.623562,3.31157239 103.973002,3.45359259 C104.328682,3.59935017 104.626954,3.80365993 104.869066,4.06652189 C105.108682,4.32813805 105.292138,4.64955219 105.418186,5.02453535 C105.54049,5.39328956 105.60289,5.81312121 105.60289,6.2703266 C105.60289,6.42480471 105.600394,6.55561279 105.59665,6.66025926 L105.576682,6.95924916 L105.566698,7.06140404 L101.168746,7.06140404 C101.186218,7.61328956 101.354698,8.04433333 101.667946,8.34456902 C102.004906,8.66598316 102.497866,8.82793603 103.143082,8.82793603 C103.322794,8.82793603 103.507498,8.82170707 103.682218,8.80551178 C103.864426,8.79305387 104.04289,8.77312121 104.206378,8.74820539 C104.377354,8.72453535 104.540842,8.69463636 104.694346,8.66473737 C104.845354,8.63483838 104.987626,8.60120202 105.121162,8.56382828 L105.263434,8.52271717 L105.263434,9.65140404 L105.182314,9.67507407 C104.880298,9.75854209 104.538346,9.82955219 104.16145,9.88187542 C103.783306,9.93419865 103.38769,9.96160606 102.985834,9.96160606 C102.435466,9.96160606 101.956234,9.88561279 101.555626,9.73362626 C101.152522,9.58288552 100.81681,9.3586431 100.558474,9.07086532 Z M102.717514,4.33312121 C102.97585,4.33312121 103.204234,4.37672391 103.397674,4.46392929 C103.58737,4.55113468 103.748362,4.67073064 103.878154,4.82396296 C104.006698,4.97844108 104.102794,5.16406397 104.16769,5.37834007 C104.218858,5.56520875 104.247562,5.77574747 104.245066,5.9999899 L101.177482,5.9999899 C101.201194,5.77823906 101.249866,5.5726835 101.321002,5.38332323 C101.40337,5.16281818 101.511946,4.97345791 101.64673,4.8189798 C101.776522,4.66450168 101.932522,4.54365993 102.115978,4.46019192 C102.291946,4.37547811 102.496618,4.33312121 102.717514,4.33312121 Z M108.401779,9.90392593 C108.043603,9.86655219 107.685427,9.80550842 107.337235,9.71954882 L107.251123,9.69837037 L107.251123,8.46129966 L107.394643,8.50241077 C107.757811,8.60456566 108.120979,8.68305051 108.477907,8.73661953 C108.829843,8.78769697 109.188019,8.81510438 109.543699,8.81510438 C110.039155,8.81510438 110.411059,8.74907744 110.645683,8.61826936 C110.857843,8.49742761 110.962675,8.33173737 110.962675,8.10998653 L110.914003,7.85459933 L110.728051,7.64032323 C110.634451,7.56682155 110.480947,7.48709091 110.273779,7.40486869 C110.056627,7.3176633 109.759603,7.21924579 109.383955,7.10837037 C109.099411,7.02241077 108.829843,6.92523906 108.585235,6.8193468 C108.335635,6.70722559 108.115987,6.57641751 107.938771,6.42443098 C107.751571,6.26870707 107.601811,6.08432997 107.494483,5.87752862 C107.388403,5.66449832 107.335987,5.41409428 107.335987,5.13254545 C107.335987,4.94318519 107.377171,4.73513805 107.464531,4.51587879 C107.550643,4.29163636 107.700403,4.08358923 107.907571,3.89173737 C108.114739,3.70486869 108.391795,3.5466532 108.741235,3.42207407 C109.251667,3.24143434 109.941811,3.19783165 110.860339,3.28129966 C111.158611,3.30746128 111.478099,3.35480135 111.810067,3.42207407 L111.902419,3.43826936 L111.902419,4.64544108 L111.761395,4.61055892 C111.428179,4.5283367 111.103699,4.46853872 110.801683,4.42742761 C110.153971,4.34520539 109.678483,4.3576633 109.358995,4.42991919 C109.188019,4.46853872 109.048243,4.52086195 108.944659,4.58688889 L108.736243,4.7986734 L108.673843,5.06278114 L108.730003,5.32065993 L108.937171,5.54365657 C109.048243,5.62214141 109.206739,5.70311785 109.410163,5.78534007 C109.618579,5.86880808 109.891891,5.96099663 110.231347,6.06065993 C110.606995,6.16904377 110.926483,6.28490236 111.184819,6.4069899 C111.446899,6.52907744 111.666547,6.66860606 111.835027,6.82183838 C112.006003,6.97880808 112.128307,7.1606936 112.206931,7.3600202 C112.276819,7.55685522 112.318003,7.77985185 112.318003,8.02278114 C112.318003,8.2569899 112.274323,8.47126599 112.191955,8.66062626 C112.113331,8.84998653 112.002259,9.01692256 111.863731,9.16018855 C111.726451,9.30470034 111.565459,9.42803367 111.388243,9.52769697 C111.213523,9.62611448 111.023827,9.7083367 110.819155,9.77436364 C110.616979,9.83789899 110.411059,9.88523906 110.201395,9.91638384 C109.991731,9.94503704 109.783315,9.95998653 109.586131,9.95998653 C109.159315,9.95998653 108.759955,9.94254545 108.401779,9.90392593 Z M115.31208,7.6476734 L115.31208,4.48959259 L113.553648,4.48959259 L113.553648,3.35218519 L115.31208,3.35218519 L115.31208,1.65292593 L116.626224,1.31282492 L116.626224,3.35218519 L119.446704,3.35218519 L119.446704,4.48959259 L116.626224,4.48959259 L116.626224,7.56046801 C116.626224,7.97780808 116.736048,8.2880101 116.949456,8.48609091 C117.261456,8.77885185 117.824304,8.84487879 118.573104,8.7439697 C118.81272,8.71282492 119.058576,8.66548485 119.304432,8.6007037 L119.446704,8.56582155 L119.446704,9.73561953 L119.360592,9.75804377 C119.110992,9.82157912 118.847664,9.86642761 118.583088,9.89508081 C118.318512,9.92124242 118.043952,9.93494613 117.77064,9.93494613 C116.954448,9.93494613 116.334192,9.74683165 115.928592,9.37184848 C115.518,8.99561953 115.31208,8.41508081 115.31208,7.6476734 Z M126.54408,8.71593939 L126.54408,9.84836364 L121.278768,9.84836364 L121.278768,8.71593939 L123.344208,8.71593939 L123.344208,4.47651178 L121.484688,4.47651178 L121.484688,3.35156229 L124.673328,3.35156229 L124.673328,8.71593939 L126.54408,8.71593939 Z M123.147398,2.37498653 C123.063782,2.28778114 122.992646,2.18313468 122.945222,2.0660303 C122.892806,1.94643434 122.866598,1.82310101 122.866598,1.69104714 C122.866598,1.55525589 122.894054,1.42818519 122.945222,1.31108081 C122.992646,1.1977138 123.063782,1.09306734 123.147398,1.00586195 C123.23351,0.916164983 123.338342,0.846400673 123.456902,0.796569024 C123.694022,0.696905724 123.983558,0.696905724 124.21943,0.795323232 C124.33799,0.846400673 124.442822,0.916164983 124.527686,1.00337037 L124.733606,1.31108081 C124.784774,1.42693939 124.810982,1.5540101 124.810982,1.69104714 C124.810982,1.8243468 124.784774,1.94768013 124.733606,2.0660303 C124.684934,2.18188889 124.61879,2.28528956 124.528934,2.37498653 C124.442822,2.4646835 124.340486,2.53444781 124.220678,2.58427946 C124.102118,2.63411111 123.972326,2.66027273 123.83879,2.66027273 C123.702758,2.66027273 123.57671,2.63411111 123.45815,2.58552525 C123.338342,2.53444781 123.23351,2.4646835 123.147398,2.37498653 Z M98.438496,16.4722357 L96.554016,16.4722357 L96.554016,22.5205522 L98.438496,22.5205522 L98.438496,23.6978249 L93.3192,23.6978249 L93.3192,22.5205522 L95.201184,22.5205522 L95.201184,16.4722357 L93.3192,16.4722357 L93.3192,15.3086667 L98.438496,15.3086667 L98.438496,16.4722357 Z M105.565699,23.6977003 L104.247811,23.6977003 L104.247811,19.5816061 C104.247811,19.1156801 104.165443,18.7743333 103.999459,18.5600572 C103.834723,18.3532559 103.597603,18.251101 103.268131,18.251101 C103.148323,18.251101 103.027267,18.2710337 102.911203,18.30467 C102.795139,18.340798 102.675331,18.4055791 102.546787,18.4965219 C102.414499,18.5899562 102.270979,18.7145354 102.112483,18.8789798 C101.957731,19.0409327 101.788003,19.2365219 101.604547,19.4657475 L101.604547,23.6977003 L100.287907,23.6977003 L100.287907,17.2021448 L101.482243,17.2021448 L101.518435,18.0430539 C101.639491,17.9122458 101.756803,17.7963872 101.875363,17.6979697 C102.051331,17.5509663 102.227299,17.4301246 102.398275,17.3391818 C102.574243,17.2469933 102.751459,17.1834579 102.933667,17.1435926 C103.108387,17.1062189 103.296835,17.0887778 103.486531,17.0887778 C104.164195,17.0887778 104.688355,17.2943333 105.037795,17.6979697 C105.385987,18.0991145 105.565699,18.7020774 105.565699,19.4944007 L105.565699,23.6977003 Z M109.802035,15.1626599 L109.802035,17.2007744 L112.623763,17.2007744 L112.623763,18.3394276 L109.802035,18.3394276 L109.802035,21.4127946 C109.802035,21.8263973 109.911859,22.1390909 110.124019,22.3371717 C110.438515,22.6286869 111.000115,22.693468 111.750163,22.5962963 C111.986035,22.5639057 112.231891,22.5153199 112.480243,22.4517845 L112.623763,22.4144108 L112.623763,23.5867003 L112.536403,23.606633 C112.285555,23.6701684 112.023475,23.7175084 111.756403,23.74367 C111.491827,23.7723232 111.219763,23.7847811 110.943955,23.7847811 C110.131507,23.7847811 109.512499,23.5954209 109.103155,23.2216835 C108.691315,22.8442088 108.484147,22.2661616 108.484147,21.4987542 L108.484147,18.3394276 L106.725715,18.3394276 L106.725715,17.2007744 L108.484147,17.2007744 L108.484147,15.5027609 L109.802035,15.1626599 Z M119.179632,17.9162323 C119.420496,18.1778485 119.602704,18.5017542 119.726256,18.8754916 C119.851056,19.2442458 119.912208,19.6628316 119.912208,20.1187912 C119.912208,20.2745152 119.908464,20.4053232 119.905968,20.5099697 L119.886,20.8089596 L119.874768,20.9123603 L115.479312,20.9123603 C115.496784,21.4642458 115.664016,21.8952896 115.977264,22.1955253 C116.314224,22.5156936 116.807184,22.6776465 117.451152,22.6776465 C117.638352,22.6776465 117.818064,22.6714175 117.992784,22.656468 C118.172496,22.6440101 118.349712,22.6228316 118.516944,22.5991616 C118.685424,22.573 118.85016,22.5468384 119.004912,22.5144478 C119.163408,22.483303 119.304432,22.4484209 119.429232,22.4147845 L119.572752,22.3749192 L119.572752,23.5023603 L119.490384,23.5247845 C119.184624,23.6107441 118.84392,23.6805084 118.46952,23.7315859 C118.093872,23.7839091 117.698256,23.8100707 117.295152,23.8100707 C116.746032,23.8100707 116.268048,23.7340774 115.866192,23.5845825 C115.463088,23.432596 115.128624,23.2095993 114.86904,22.9205758 C114.609456,22.632798 114.416016,22.2752559 114.29496,21.8579158 C114.172656,21.4480505 114.110256,20.9783872 114.110256,20.4626296 C114.110256,20.0104074 114.177648,19.5781178 114.304944,19.1732357 C114.437232,18.7683535 114.633168,18.4070741 114.88152,18.1006094 C115.13736,17.7916532 115.451856,17.5424949 115.818768,17.363101 C116.184432,17.1799697 116.61,17.0890269 117.078,17.0890269 C117.523536,17.0890269 117.934128,17.1612828 118.284816,17.3020572 C118.636752,17.446569 118.936272,17.6546162 119.179632,17.9162323 Z M117.026832,18.1828316 C117.28392,18.1828316 117.513552,18.2264343 117.704496,18.3123939 C117.89544,18.3995993 118.05768,18.5204411 118.18872,18.6724276 C118.317264,18.8293973 118.412112,19.0150202 118.474512,19.2292963 C118.529424,19.4149192 118.558128,19.6217205 118.55688,19.8484545 L115.4868,19.8484545 C115.509264,19.6304411 115.559184,19.4248855 115.631568,19.2342795 C115.713936,19.0137744 115.822512,18.8231684 115.956048,18.6674444 C116.084592,18.5142121 116.243088,18.3921246 116.424048,18.3086566 C116.602512,18.2251886 116.804688,18.1828316 117.026832,18.1828316 Z M125.009664,17.0885286 C125.694816,17.0885286 126.22272,17.3152626 126.579648,17.7625017 C126.929088,18.202266 127.09632,18.8563064 127.068864,19.7096734 L127.063872,19.819303 L125.739744,19.819303 L125.74224,19.7046902 C125.753472,19.1802121 125.677344,18.8002458 125.520096,18.5760034 C125.366592,18.3579899 125.14944,18.2520976 124.854912,18.2520976 C124.721376,18.2520976 124.586592,18.2745219 124.45056,18.3231077 C124.312032,18.3704478 124.168512,18.4489327 124.022496,18.5573165 C123.871488,18.6694377 123.709248,18.8127037 123.538272,18.9858687 C123.37728,19.1515589 123.200064,19.3558687 123.007872,19.5950606 L123.007872,23.698697 L121.682496,23.698697 L121.682496,17.2018956 L122.899296,17.2018956 L122.926752,18.1773502 C123.24,17.8347576 123.555744,17.5743872 123.864,17.402468 C124.240896,17.1944209 124.622784,17.0885286 125.009664,17.0885286 Z M131.667619,17.0885286 C132.345283,17.0885286 132.866947,17.2940842 133.218883,17.7002121 C133.567075,18.0988653 133.746787,18.7018283 133.746787,19.4929057 L133.746787,23.6974512 L132.428899,23.6974512 L132.428899,19.5801111 C132.428899,19.1166768 132.345283,18.7728384 132.176803,18.5622997 C132.014563,18.3542525 131.777443,18.2520976 131.446723,18.2520976 C131.328163,18.2520976 131.205859,18.2695387 131.091043,18.3069125 C130.976227,18.3417946 130.853923,18.4040842 130.722883,18.4962727 C130.593091,18.5897071 130.445827,18.7205152 130.293571,18.8787306 C130.142563,19.0344545 129.977827,19.2263064 129.784387,19.4642525 L129.784387,23.6974512 L128.468995,23.6974512 L128.468995,17.2018956 L129.659587,17.2018956 L129.698275,18.0428047 C129.820579,17.9119966 129.937891,17.7973838 130.056451,17.7002121 C130.236163,17.5482256 130.409635,17.4273838 130.580611,17.3401785 C130.752835,17.2479899 130.928803,17.181963 131.112259,17.1433434 C131.286979,17.1072155 131.477923,17.0885286 131.667619,17.0885286 Z M140.314013,17.9162323 C140.554877,18.1766027 140.737085,18.4992626 140.863133,18.873 C140.985437,19.2442458 141.047837,19.6628316 141.047837,20.1175455 C141.047837,20.2732694 141.044093,20.4040774 141.041597,20.5099697 L141.021629,20.8102054 L141.009149,20.9123603 L136.613693,20.9123603 C136.629917,21.4642458 136.799645,21.8940438 137.112893,22.1942795 C137.449853,22.5156936 137.944061,22.6776465 138.588029,22.6776465 C138.773981,22.6776465 138.953693,22.6714175 139.125917,22.656468 C139.296893,22.6440101 139.475357,22.6228316 139.652573,22.5991616 C139.822301,22.573 139.985789,22.5455926 140.139293,22.5144478 C140.294045,22.4845488 140.433821,22.4521582 140.564861,22.4147845 L140.708381,22.3749192 L140.708381,23.5023603 L140.627261,23.5247845 C140.320253,23.6094983 139.978301,23.6805084 139.606397,23.7315859 C139.227005,23.7839091 138.833885,23.8100707 138.432029,23.8100707 C137.882909,23.8100707 137.402429,23.7340774 137.000573,23.5833367 C136.598717,23.432596 136.263005,23.2095993 136.003421,22.91933 C135.743837,22.632798 135.550397,22.2765017 135.429341,21.8579158 C135.307037,21.4517879 135.245885,20.9808788 135.245885,20.4626296 C135.245885,20.0104074 135.312029,19.5781178 135.440573,19.1732357 C135.574109,18.765862 135.768797,18.4045825 136.018397,18.1006094 C136.270493,17.792899 136.586237,17.5437407 136.954397,17.363101 C137.320061,17.1799697 137.745629,17.0890269 138.212381,17.0890269 C138.660413,17.0890269 139.071005,17.1612828 139.419197,17.3020572 C139.772381,17.446569 140.070653,17.6533704 140.314013,17.9162323 Z M138.161213,18.1828316 C138.419549,18.1828316 138.647933,18.2264343 138.841373,18.3123939 C139.032317,18.3995993 139.193309,18.5204411 139.324349,18.6724276 C139.450397,18.8256599 139.547741,19.0125286 139.611389,19.2280505 C139.665053,19.4174108 139.693757,19.6242121 139.691261,19.8484545 L136.622429,19.8484545 C136.647389,19.6242121 136.693565,19.4223939 136.767197,19.2342795 C136.848317,19.0150202 136.956893,18.8244141 137.091677,18.6674444 C137.220221,18.5142121 137.381213,18.3921246 137.559677,18.3086566 C137.739389,18.2251886 137.940317,18.1828316 138.161213,18.1828316 Z M145.026336,15.1626599 L145.026336,17.2007744 L147.848064,17.2007744 L147.848064,18.3394276 L145.026336,18.3394276 L145.026336,21.4127946 C145.026336,21.8263973 145.13616,22.1378451 145.350816,22.3371717 C145.662816,22.6286869 146.22816,22.6922222 146.975712,22.5962963 C147.212832,22.5639057 147.45744,22.5140741 147.704544,22.4517845 L147.848064,22.4144108 L147.848064,23.5867003 L147.760704,23.606633 C147.508608,23.6701684 147.24528,23.7175084 146.980704,23.74367 C146.719872,23.7723232 146.447808,23.7847811 146.169504,23.7847811 C145.355808,23.7847811 144.738048,23.5954209 144.328704,23.2216835 C143.916864,22.8442088 143.709696,22.2661616 143.709696,21.4987542 L143.709696,18.3394276 L141.95376,18.3394276 L141.95376,17.2007744 L143.709696,17.2007744 L143.709696,15.5027609 L145.026336,15.1626599 Z M151.547885,16.2240741 C151.463021,16.1356229 151.393133,16.0322222 151.344461,15.9151178 C151.293293,15.7955219 151.268333,15.6721886 151.268333,15.5401347 C151.268333,15.4055892 151.294541,15.2785185 151.344461,15.1614141 C151.394381,15.0455556 151.464269,14.9434007 151.547885,14.8549495 C151.635245,14.7652525 151.738829,14.696734 151.854893,14.6456566 C152.093261,14.5459933 152.386541,14.5459933 152.619917,14.6456566 C152.738477,14.696734 152.842061,14.7652525 152.928173,14.8537037 C153.018029,14.9446465 153.085421,15.0468013 153.134093,15.1614141 C153.185261,15.2747811 153.210221,15.4018519 153.210221,15.5401347 C153.210221,15.6734343 153.185261,15.7980135 153.134093,15.9163636 C153.085421,16.0309764 153.018029,16.1343771 152.928173,16.2240741 C152.847053,16.3125253 152.742221,16.3835354 152.621165,16.4346128 C152.503853,16.4831987 152.374061,16.5093603 152.240525,16.5093603 C152.101997,16.5093603 151.975949,16.4831987 151.857389,16.4346128 C151.735085,16.3822896 151.632749,16.313771 151.547885,16.2240741 Z M153.072566,22.5656498 L154.943318,22.5656498 L154.943318,23.6980741 L149.679254,23.6980741 L149.679254,22.5656498 L151.74719,22.5656498 L151.74719,18.3262222 L149.885174,18.3262222 L149.885174,17.2000269 L153.072566,17.2000269 L153.072566,22.5656498 Z M98.1935136,33.7423906 C98.4031776,33.9280135 98.5754016,34.1485185 98.7039456,34.3976768 C98.8362336,34.6493266 98.9011296,34.9508081 98.9011296,35.2909091 C98.9011296,35.697037 98.8175136,36.0583165 98.6490336,36.3647811 C98.4818016,36.6712458 98.2484256,36.9278788 97.9514016,37.1309428 C97.6543776,37.3315152 97.2986976,37.4847475 96.8893536,37.583165 C96.4850016,37.6790909 96.0332256,37.7289226 95.5490016,37.7289226 C95.3306016,37.7289226 95.1072096,37.7214478 94.8913056,37.7040067 C94.6442016,37.6853199 94.4495136,37.6641414 94.2660576,37.6404714 C94.0663776,37.6168013 93.8779296,37.5856566 93.6969696,37.5520202 C93.5135136,37.5158923 93.3550176,37.4810101 93.2164896,37.4436364 L93.1291296,37.4212121 L93.1291296,36.0981818 L93.2838816,36.1542424 C93.5846496,36.2663636 93.9315936,36.3585522 94.3184736,36.4245791 C94.6978656,36.4906061 95.1421536,36.5229966 95.6263776,36.5229966 C95.9758176,36.5229966 96.2740896,36.4955892 96.5199456,36.4407744 C96.7558176,36.389697 96.9505056,36.3112121 97.1002656,36.2078114 C97.2425376,36.1081481 97.3473696,35.989798 97.4110176,35.8515152 C97.4784096,35.7094949 97.5096096,35.5413131 97.5096096,35.3556902 C97.5096096,35.160101 97.4571936,34.9969024 97.3486176,34.8598653 C97.2325536,34.7141077 97.0802976,34.5820539 96.8943456,34.4674411 C96.6984096,34.3465993 96.4725216,34.2357239 96.2279136,34.139798 C95.9708256,34.0376431 95.7087456,33.9329966 95.4416736,33.823367 C95.1708576,33.7149832 94.9037856,33.5941414 94.6466976,33.4670707 C94.3846176,33.3362626 94.1474976,33.1817845 93.9403296,33.0011448 C93.7306656,32.8205051 93.5571936,32.6037374 93.4286496,32.3595623 C93.2963616,32.110404 93.2289696,31.8139057 93.2289696,31.4762963 C93.2289696,31.1835354 93.2926176,30.8920202 93.4149216,30.606734 C93.5397216,30.3214478 93.7319136,30.0660606 93.9914976,29.8455556 C94.2473376,29.6262963 94.5780576,29.4469024 94.9774176,29.3148485 C95.3705376,29.1815488 95.8485216,29.1142761 96.3914016,29.1142761 C96.5336736,29.1142761 96.6859296,29.1217508 96.8481696,29.1342088 C97.0104096,29.1466667 97.1763936,29.1653535 97.3423776,29.1877778 C97.5071136,29.2114478 97.6730976,29.2376094 97.8365856,29.2675084 C98.0000736,29.2961616 98.1498336,29.3273064 98.2871136,29.3621886 L98.3757216,29.383367 L98.3757216,30.6216835 L98.2284576,30.5793266 C97.9214496,30.4921212 97.6032096,30.4223569 97.2837216,30.3725253 C96.9642336,30.326431 96.6559776,30.3027609 96.3651936,30.3027609 C95.7549216,30.3027609 95.3031456,30.4024242 95.0235936,30.6005051 C94.7515296,30.7911111 94.6229856,31.0415152 94.6229856,31.3641751 C94.6229856,31.5610101 94.6754016,31.7242088 94.7839776,31.8637374 C94.8962976,32.0119865 95.0473056,32.1415488 95.2382496,32.2623906 C95.4291936,32.3819865 95.6550816,32.4941077 95.9059296,32.5925253 L96.1093536,32.6747475 C96.2978016,32.7507407 96.4949856,32.8279798 96.6909216,32.9077104 C96.9667296,33.0198316 97.2313056,33.143165 97.4834016,33.2689899 C97.7479776,33.399798 97.9838496,33.5592593 98.1935136,33.7423906 Z M102.290822,29.2272694 L103.98311,29.2272694 L106.73495,37.6176734 L105.28103,37.6176734 L104.711942,35.8374377 L101.47463,35.8374377 L100.898054,37.6176734 L99.5002944,37.6176734 L102.290822,29.2272694 Z M104.321318,34.6178081 L101.864006,34.6178081 L103.093286,30.7396599 L104.321318,34.6178081 Z" id="Combined-Shape" fill="#000000"></path>
                    <path d="M75.1749024,35.9049596 C72.0037344,35.9049596 69.5663904,33.9577879 68.9973024,30.4683266 L83.0997024,30.4683266 L84.8381664,28.7316936 C84.6946464,22.695835 81.2451744,17.5669125 74.5658784,17.5669125 C69.9445344,17.5669125 66.3390624,20.4210202 64.8389664,24.462367 L50.5768224,17.6429057 L48.8583264,15.928697 C47.1573024,17.5831077 45.4525344,18.4726027 43.0601184,18.4726027 C39.8901984,18.4726027 37.4503584,16.525431 36.8812704,13.0359697 L50.9836704,13.0359697 L52.7258784,11.3005825 C52.5798624,5.26347811 49.1328864,0.134555556 42.4498464,0.134555556 C36.3109344,0.134555556 31.9641504,5.16506061 31.9641504,11.3317273 C31.9641504,12.6584949 32.1613344,13.8943199 32.5145184,15.0317273 L12.2182944,24.1583939 L13.0457184,25.9934444 L33.2832864,16.8941852 C35.1203424,20.3699428 38.7133344,22.4890337 42.9777504,22.4890337 C46.1351904,22.4890337 48.5525664,21.4612559 50.4382944,19.8068451 L64.2948384,26.4344545 C64.1563104,27.1869125 64.0776864,27.965532 64.0776864,28.76533 C64.0776864,35.4178552 68.8737504,39.9213906 75.0937824,39.9213906 C78.9338784,39.9213906 81.6919584,38.4177205 83.7087264,36.0905825 L80.9731104,33.3610539 C79.2683424,35.0154646 77.5648224,35.9049596 75.1749024,35.9049596 M42.4086624,4.15098653 C45.6621984,4.15098653 47.5317024,6.62637374 47.8536864,9.7906835 L36.8413344,9.7906835 C37.2881184,6.46317508 39.4034784,4.15098653 42.4086624,4.15098653 M74.5246944,21.5845892 C77.7757344,21.5845892 79.6439904,24.0574848 79.9697184,27.2230404 L68.9573664,27.2230404 C69.4029024,23.895532 71.5145184,21.5845892 74.5246944,21.5845892" id="Fill-37" fill="#000000"></path>
                    <path d="M14.1594336,27.7366801 C14.1594336,31.6397441 10.9895136,34.8015623 7.0782816,34.8015623 C3.1682976,34.8015623 -0.0003744,31.6397441 -0.0003744,27.7366801 C-0.0003744,23.834862 3.1682976,20.6705522 7.0782816,20.6705522 C10.9895136,20.6705522 14.1594336,23.834862 14.1594336,27.7366801" id="Fill-40" fill="#008AC5"></path>
                </g>
            </g>
        </g>
    </g>
</svg>