<svg width="32" height="32" viewBox="0 0 32 32" fill="none" xmlns="http://www.w3.org/2000/svg">
<path d="M9.33268 20H13.3327C13.6863 20 14.0254 19.8595 14.2755 19.6095C14.5255 19.3594 14.666 19.0203 14.666 18.6667C14.666 18.3131 14.5255 17.9739 14.2755 17.7239C14.0254 17.4738 13.6863 17.3334 13.3327 17.3334H9.33268C8.97906 17.3334 8.63992 17.4738 8.38987 17.7239C8.13982 17.9739 7.99935 18.3131 7.99935 18.6667C7.99935 19.0203 8.13982 19.3594 8.38987 19.6095C8.63992 19.8595 8.97906 20 9.33268 20ZM25.3327 6.66669H6.66602C5.60515 6.66669 4.58773 7.08811 3.83759 7.83826C3.08744 8.58841 2.66602 9.60582 2.66602 10.6667V22.6667C2.66602 23.7276 3.08744 24.745 3.83759 25.4951C4.58773 26.2453 5.60515 26.6667 6.66602 26.6667H25.3327C26.3935 26.6667 27.411 26.2453 28.1611 25.4951C28.9113 24.745 29.3327 23.7276 29.3327 22.6667V10.6667C29.3327 9.60582 28.9113 8.58841 28.1611 7.83826C27.411 7.08811 26.3935 6.66669 25.3327 6.66669ZM26.666 22.6667C26.666 23.0203 26.5255 23.3594 26.2755 23.6095C26.0254 23.8595 25.6863 24 25.3327 24H6.66602C6.31239 24 5.97326 23.8595 5.72321 23.6095C5.47316 23.3594 5.33268 23.0203 5.33268 22.6667V14.6667H26.666V22.6667ZM26.666 12H5.33268V10.6667C5.33268 10.3131 5.47316 9.97393 5.72321 9.72388C5.97326 9.47383 6.31239 9.33335 6.66602 9.33335H25.3327C25.6863 9.33335 26.0254 9.47383 26.2755 9.72388C26.5255 9.97393 26.666 10.3131 26.666 10.6667V12Z" fill="#48A23F"/>
</svg>
