<svg width="28" height="28" viewBox="0 0 28 28" fill="none" xmlns="http://www.w3.org/2000/svg">
<path d="M14.0158 0.671877C6.65487 0.667483 0.684084 6.63111 0.67969 13.992C0.675295 21.3529 6.63892 27.3237 13.9998 27.3281C17.5362 27.3339 20.9292 25.9305 23.4282 23.4284C25.9282 20.9305 27.3338 17.542 27.3359 14.008C27.3403 6.64706 21.3767 0.676272 14.0158 0.671877ZM14.0162 25.9948C7.3916 25.9993 2.01774 20.6327 2.01319 14.0081C2.00871 7.38363 7.37533 2.00969 13.9998 2.00521C17.1826 1.99951 20.2364 3.26237 22.4855 5.51433C24.7354 7.76213 26.0007 10.8114 26.0028 13.9919C26.0073 20.6164 20.6407 25.9902 14.0162 25.9948ZM14.9425 14L19.1847 9.75782C19.4387 9.49862 19.4387 9.08382 19.1847 8.82463C18.927 8.56169 18.505 8.55746 18.242 8.81511L13.9998 13.0573L9.75765 8.81519C9.49846 8.5612 9.08366 8.5612 8.82447 8.81519C8.56153 9.07284 8.55729 9.49488 8.81494 9.75782L13.0571 14L8.81494 18.2422C8.68994 18.3672 8.61979 18.5367 8.61971 18.7135C8.61971 19.0816 8.91813 19.3801 9.2863 19.3802C9.46314 19.3805 9.63282 19.3101 9.75765 19.1849L13.9998 14.9427L18.242 19.1849C18.3669 19.3101 18.5365 19.3805 18.7134 19.3802C18.8901 19.3801 19.0596 19.31 19.1846 19.1851C19.445 18.9247 19.445 18.5026 19.1847 18.2422L14.9425 14Z" fill="#A7A8AA"/>
</svg>
