<svg width="10" height="12" viewBox="0 0 10 12" fill="none" xmlns="http://www.w3.org/2000/svg">
<path d="M0 2.54351C0 2.69147 0.0587754 2.83337 0.163396 2.93799C0.268017 3.04261 0.409914 3.10138 0.55787 3.10138H0.8554V9.69354C0.855892 10.1803 1.04945 10.647 1.3936 10.9912C1.73776 11.3354 2.20441 11.5291 2.69116 11.5297H7.30884C7.79559 11.5291 8.26224 11.3354 8.6064 10.9912C8.95055 10.647 9.14411 10.1803 9.1446 9.69354V3.10138H9.44213C9.59009 3.10138 9.73198 3.04261 9.8366 2.93799C9.94122 2.83337 10 2.69147 10 2.54351C10 2.39556 9.94122 2.25366 9.8366 2.14904C9.73198 2.04442 9.59009 1.98564 9.44213 1.98564H7.48959V1.40992C7.48959 0.632624 6.85733 0 6.08004 0H3.91996C3.14267 0 2.51041 0.632252 2.51041 1.40992V1.98527H0.55787C0.409914 1.98527 0.268017 2.04405 0.163396 2.14867C0.0587754 2.25329 0 2.39556 0 2.54351ZM3.62615 1.41029C3.62615 1.24777 3.75781 1.11611 3.91996 1.11611H6.08004C6.24219 1.11611 6.37385 1.24777 6.37385 1.41029V1.98564H3.62578V1.40992L3.62615 1.41029ZM1.97114 3.10138H8.02886V9.69354C8.02866 9.88448 7.95275 10.0675 7.81778 10.2026C7.6828 10.3376 7.49977 10.4136 7.30884 10.4139H2.69116C2.50023 10.4136 2.3172 10.3376 2.18222 10.2026C2.04725 10.0675 1.97134 9.88448 1.97114 9.69354V3.10138Z" fill="black"/>
<path d="M3.61256 9.38725C3.76051 9.38725 3.90241 9.32847 4.00703 9.22385C4.11165 9.11923 4.17043 8.97733 4.17043 8.82938V4.68775C4.17043 4.5398 4.11165 4.3979 4.00703 4.29328C3.90241 4.18866 3.76051 4.12988 3.61256 4.12988C3.4646 4.12988 3.3227 4.18866 3.21808 4.29328C3.11346 4.3979 3.05469 4.5398 3.05469 4.68775V8.82938C3.05469 8.97733 3.11346 9.11923 3.21808 9.22385C3.3227 9.32847 3.4646 9.38725 3.61256 9.38725ZM6.38554 9.38725C6.5335 9.38725 6.67539 9.32847 6.78001 9.22385C6.88463 9.11923 6.94341 8.97733 6.94341 8.82938V4.68775C6.94341 4.5398 6.88463 4.3979 6.78001 4.29328C6.67539 4.18866 6.5335 4.12988 6.38554 4.12988C6.23758 4.12988 6.09569 4.18866 5.99107 4.29328C5.88645 4.3979 5.82767 4.5398 5.82767 4.68775V8.82938C5.82767 8.97733 5.88645 9.11923 5.99107 9.22385C6.09569 9.32847 6.23758 9.38725 6.38554 9.38725Z" fill="black"/>
</svg>
