<svg width="12" height="12" viewBox="0 0 12 12" fill="none" xmlns="http://www.w3.org/2000/svg">
<path d="M10.9335 2.89333L9.10686 1.06666C8.86846 0.842727 8.55606 0.714236 8.22908 0.705632C7.90211 0.697027 7.58338 0.80891 7.33353 1.02L1.33353 7.02C1.11804 7.23731 0.983867 7.52213 0.953531 7.82666L0.666864 10.6067C0.657884 10.7043 0.670554 10.8027 0.703972 10.8949C0.73739 10.9871 0.790733 11.0708 0.860198 11.14C0.922491 11.2018 0.996369 11.2507 1.07759 11.2838C1.15882 11.317 1.24579 11.3338 1.33353 11.3333H1.39353L4.17353 11.08C4.47806 11.0497 4.76289 10.9155 4.9802 10.7L10.9802 4.7C11.2131 4.45397 11.3389 4.12567 11.3302 3.78702C11.3214 3.44837 11.1788 3.127 10.9335 2.89333ZM4.05353 9.74666L2.05353 9.93333L2.23353 7.93333L6.0002 4.21333L7.8002 6.01333L4.05353 9.74666ZM8.66686 5.12L6.8802 3.33333L8.1802 2L10.0002 3.82L8.66686 5.12Z" fill="#48A23F"/>
</svg>
