<svg width="26" height="25" viewBox="0 0 26 25" fill="none" xmlns="http://www.w3.org/2000/svg">
<path d="M22.6009 5.33335H22.0809C22.2407 4.90658 22.3264 4.45564 22.3343 4.00001C22.3063 2.91546 21.8503 1.88604 21.0659 1.13658C20.2814 0.387122 19.2323 -0.0214815 18.1476 1.36432e-05C17.0816 0.0230342 16.0415 0.332219 15.136 0.895194C14.2306 1.45817 13.4931 2.25423 13.0009 3.20001C12.5087 2.25423 11.7713 1.45817 10.8658 0.895194C9.96037 0.332219 8.92021 0.0230342 7.85426 1.36432e-05C6.76956 -0.0214815 5.72042 0.387122 4.93599 1.13658C4.15155 1.88604 3.69556 2.91546 3.66759 4.00001C3.67547 4.45564 3.76115 4.90658 3.92092 5.33335H3.40092C3.05007 5.36666 2.70929 5.4692 2.3983 5.63502C2.08732 5.80084 1.81228 6.02667 1.58911 6.29944C1.36593 6.57221 1.19904 6.88651 1.09808 7.22418C0.997124 7.56184 0.964101 7.91617 1.00092 8.26668V13.0667C0.938635 13.7123 1.10463 14.3594 1.47004 14.8953C1.83544 15.4312 2.37714 15.8221 3.00092 16V21.8267C3.04208 22.4315 3.31698 22.9965 3.76742 23.4021C4.21786 23.8078 4.80849 24.0222 5.41426 24H20.5876C21.2021 24.0217 21.8003 23.8 22.2522 23.383C22.7041 22.9661 22.9732 22.3876 23.0009 21.7733V16C23.6247 15.8221 24.1664 15.4312 24.5318 14.8953C24.8972 14.3594 25.0632 13.7123 25.0009 13.0667V8.26668C25.0377 7.91617 25.0047 7.56184 24.9038 7.22418C24.8028 6.88651 24.6359 6.57221 24.4127 6.29944C24.1896 6.02667 23.9145 5.80084 23.6035 5.63502C23.2926 5.4692 22.9518 5.36666 22.6009 5.33335ZM22.3343 8.26668V13.0667C22.3503 13.1549 22.3503 13.2452 22.3343 13.3333H14.3343V8.00001H22.3343C22.3503 8.08818 22.3503 8.17851 22.3343 8.26668ZM18.1476 2.66668C18.5253 2.64467 18.8965 2.7722 19.181 3.02171C19.4654 3.27121 19.6402 3.62264 19.6676 4.00001C19.6402 4.37738 19.4654 4.72881 19.181 4.97832C18.8965 5.22783 18.5253 5.35536 18.1476 5.33335H14.8676C15.1009 4.62104 15.5342 3.99089 16.1158 3.51806C16.6973 3.04523 17.4027 2.74968 18.1476 2.66668ZM6.33426 4.00001C6.36164 3.62264 6.53645 3.27121 6.82089 3.02171C7.10533 2.7722 7.47654 2.64467 7.85426 2.66668C8.59681 2.7521 9.29927 3.04874 9.87829 3.52141C10.4573 3.99408 10.8886 4.62293 11.1209 5.33335H7.85426C7.47654 5.35536 7.10533 5.22783 6.82089 4.97832C6.53645 4.72881 6.36164 4.37738 6.33426 4.00001ZM3.66759 8.26668C3.65159 8.17851 3.65159 8.08818 3.66759 8.00001H11.6676V13.3333H3.66759C3.65159 13.2452 3.65159 13.1549 3.66759 13.0667V8.26668ZM5.66759 16H11.6676V21.3333H5.66759V16ZM14.3343 21.3333V16H20.3343V21.3333H14.3343Z" fill="#48A23F"/>
</svg>
