<svg width="19" height="19" viewBox="0 0 19 19" fill="none" xmlns="http://www.w3.org/2000/svg">
<path d="M18.7 16.3L11.9 9.50001L14.7 6.70001C15.5 5.90001 15.5 4.50001 14.7 3.70001L12.3 1.30001C11.5 0.500012 10.1 0.500012 9.3 1.30001L2.8 7.80001C2 8.60001 2 10 2.8 10.8L5.2 13.2C5.6 13.6 6.2 13.8 6.7 13.8C7.2 13.8 7.8 13.6 8.2 13.2L10.5 10.9L17.3 17.7C17.5 17.9 17.8 18 18 18C18.2 18 18.5 17.9 18.7 17.7C19.1 17.3 19.1 16.7 18.7 16.3ZM6.8 11.8C6.8 11.8 6.7 11.8 6.6 11.8L4.2 9.40001C4.2 9.40001 4.2 9.30001 4.2 9.20001L10.7 2.70001H10.8H10.9L13.3 5.10001C13.3 5.10001 13.3 5.20001 13.3 5.30001L6.8 11.8ZM13 19H1C0.4 19 0 18.6 0 18C0 17.4 0.4 17 1 17H13C13.6 17 14 17.4 14 18C14 18.6 13.6 19 13 19Z" fill="#FF6E00"/>
</svg>
