<svg width="14" height="14" viewBox="0 0 14 14" fill="none" xmlns="http://www.w3.org/2000/svg">
<path d="M6.9987 0.333252C5.68016 0.333252 4.39123 0.724245 3.2949 1.45679C2.19857 2.18933 1.34409 3.23052 0.839504 4.4487C0.33492 5.66687 0.202898 7.00731 0.460132 8.30052C0.717367 9.59373 1.35231 10.7816 2.28466 11.714C3.21701 12.6463 4.40489 13.2813 5.6981 13.5385C6.99131 13.7957 8.33175 13.6637 9.54992 13.1591C10.7681 12.6545 11.8093 11.8 12.5418 10.7037C13.2744 9.60739 13.6654 8.31846 13.6654 6.99992C13.6654 6.12444 13.4929 5.25753 13.1579 4.4487C12.8229 3.63986 12.3318 2.90493 11.7127 2.28587C11.0937 1.66682 10.3588 1.17575 9.54992 0.840722C8.74109 0.50569 7.87418 0.333252 6.9987 0.333252ZM6.9987 12.3333C5.94387 12.3333 4.91272 12.0205 4.03566 11.4344C3.1586 10.8484 2.47501 10.0154 2.07134 9.0409C1.66768 8.06636 1.56206 6.994 1.76785 5.95944C1.97363 4.92487 2.48158 3.97456 3.22746 3.22868C3.97334 2.4828 4.92365 1.97485 5.95822 1.76906C6.99278 1.56328 8.06514 1.66889 9.03968 2.07256C10.0142 2.47623 10.8472 3.15982 11.4332 4.03688C12.0192 4.91394 12.332 5.94508 12.332 6.99992C12.332 8.41441 11.7701 9.77096 10.7699 10.7712C9.76974 11.7713 8.41319 12.3333 6.9987 12.3333Z" fill="#A7A8AA"/>
<path d="M6.9987 4.99996C7.36689 4.99996 7.66536 4.70148 7.66536 4.33329C7.66536 3.9651 7.36689 3.66663 6.9987 3.66663C6.63051 3.66663 6.33203 3.9651 6.33203 4.33329C6.33203 4.70148 6.63051 4.99996 6.9987 4.99996Z" fill="#A7A8AA"/>
<path d="M6.9987 5.66663C6.82189 5.66663 6.65232 5.73686 6.52729 5.86189C6.40227 5.98691 6.33203 6.15648 6.33203 6.33329V9.66663C6.33203 9.84344 6.40227 10.013 6.52729 10.138C6.65232 10.2631 6.82189 10.3333 6.9987 10.3333C7.17551 10.3333 7.34508 10.2631 7.4701 10.138C7.59513 10.013 7.66536 9.84344 7.66536 9.66663V6.33329C7.66536 6.15648 7.59513 5.98691 7.4701 5.86189C7.34508 5.73686 7.17551 5.66663 6.9987 5.66663Z" fill="#A7A8AA"/>
</svg>
