<svg width="13" height="10" viewBox="0 0 13 10" fill="none" xmlns="http://www.w3.org/2000/svg">
<path d="M2.72869 0.772727V9.5H0.883523V0.772727H2.72869ZM12.2667 5.13636C12.2667 6.08807 12.0863 6.89773 11.7255 7.56534C11.3675 8.23295 10.8789 8.7429 10.2596 9.09517C9.64311 9.4446 8.94993 9.61932 8.18004 9.61932C7.40447 9.61932 6.70845 9.44318 6.09197 9.09091C5.4755 8.73864 4.98828 8.22869 4.63033 7.56108C4.27237 6.89347 4.09339 6.08523 4.09339 5.13636C4.09339 4.18466 4.27237 3.375 4.63033 2.70739C4.98828 2.03977 5.4755 1.53125 6.09197 1.18182C6.70845 0.829545 7.40447 0.653409 8.18004 0.653409C8.94993 0.653409 9.64311 0.829545 10.2596 1.18182C10.8789 1.53125 11.3675 2.03977 11.7255 2.70739C12.0863 3.375 12.2667 4.18466 12.2667 5.13636ZM10.396 5.13636C10.396 4.51989 10.3036 4 10.119 3.5767C9.93714 3.15341 9.68004 2.83239 9.34766 2.61364C9.01527 2.39489 8.62607 2.28551 8.18004 2.28551C7.73402 2.28551 7.34482 2.39489 7.01243 2.61364C6.68004 2.83239 6.42152 3.15341 6.23686 3.5767C6.05504 4 5.96413 4.51989 5.96413 5.13636C5.96413 5.75284 6.05504 6.27273 6.23686 6.69602C6.42152 7.11932 6.68004 7.44034 7.01243 7.65909C7.34482 7.87784 7.73402 7.98722 8.18004 7.98722C8.62607 7.98722 9.01527 7.87784 9.34766 7.65909C9.68004 7.44034 9.93714 7.11932 10.119 6.69602C10.3036 6.27273 10.396 5.75284 10.396 5.13636Z" fill="#0085CA"/>
</svg>
