<svg width="16" height="10" viewBox="0 0 16 10" fill="none" xmlns="http://www.w3.org/2000/svg">
<path d="M0.180398 9.5V0.772727H3.62358C4.28551 0.772727 4.84943 0.899148 5.31534 1.15199C5.78125 1.40199 6.13636 1.75 6.38068 2.19602C6.62784 2.6392 6.75142 3.15057 6.75142 3.73011C6.75142 4.30966 6.62642 4.82102 6.37642 5.2642C6.12642 5.70739 5.7642 6.05256 5.28977 6.29972C4.81818 6.54687 4.24716 6.67045 3.5767 6.67045H1.3821V5.19176H3.27841C3.63352 5.19176 3.92614 5.13068 4.15625 5.00852C4.3892 4.88352 4.5625 4.71165 4.67614 4.4929C4.79261 4.27131 4.85085 4.01705 4.85085 3.73011C4.85085 3.44034 4.79261 3.1875 4.67614 2.97159C4.5625 2.75284 4.3892 2.58381 4.15625 2.46449C3.9233 2.34233 3.62784 2.28125 3.26989 2.28125H2.02557V9.5H0.180398ZM15.9698 5.13636C15.9698 6.08807 15.7894 6.89773 15.4286 7.56534C15.0707 8.23295 14.582 8.7429 13.9627 9.09517C13.3462 9.4446 12.6531 9.61932 11.8832 9.61932C11.1076 9.61932 10.4116 9.44318 9.7951 9.09091C9.17862 8.73864 8.69141 8.22869 8.33345 7.56108C7.9755 6.89347 7.79652 6.08523 7.79652 5.13636C7.79652 4.18466 7.9755 3.375 8.33345 2.70739C8.69141 2.03977 9.17862 1.53125 9.7951 1.18182C10.4116 0.829545 11.1076 0.653409 11.8832 0.653409C12.6531 0.653409 13.3462 0.829545 13.9627 1.18182C14.582 1.53125 15.0707 2.03977 15.4286 2.70739C15.7894 3.375 15.9698 4.18466 15.9698 5.13636ZM14.0991 5.13636C14.0991 4.51989 14.0067 4 13.8221 3.5767C13.6403 3.15341 13.3832 2.83239 13.0508 2.61364C12.7184 2.39489 12.3292 2.28551 11.8832 2.28551C11.4371 2.28551 11.0479 2.39489 10.7156 2.61364C10.3832 2.83239 10.1246 3.15341 9.93999 3.5767C9.75817 4 9.66726 4.51989 9.66726 5.13636C9.66726 5.75284 9.75817 6.27273 9.93999 6.69602C10.1246 7.11932 10.3832 7.44034 10.7156 7.65909C11.0479 7.87784 11.4371 7.98722 11.8832 7.98722C12.3292 7.98722 12.7184 7.87784 13.0508 7.65909C13.3832 7.44034 13.6403 7.11932 13.8221 6.69602C14.0067 6.27273 14.0991 5.75284 14.0991 5.13636Z" fill="#FF6E00"/>
</svg>
