<svg width="16" height="16" viewBox="0 0 16 16" fill="none" xmlns="http://www.w3.org/2000/svg">
<path d="M6.34779 12.0569C3.39471 12.0569 0.992188 9.58191 0.992188 6.5397C0.992188 3.4975 3.39471 1.02246 6.34779 1.02246C9.30087 1.02246 11.7034 3.4975 11.7034 6.5397C11.7034 9.58191 9.30087 12.0569 6.34779 12.0569ZM6.34779 2.12591C3.98543 2.12591 2.06331 4.10605 2.06331 6.5397C2.06331 8.97336 3.98543 10.9535 6.34779 10.9535C8.71015 10.9535 10.6323 8.97336 10.6323 6.5397C10.6323 4.10605 8.71068 2.12591 6.34779 2.12591Z" fill="#212224"/>
<path d="M14.0037 14.9771C13.9334 14.9772 13.8637 14.9629 13.7988 14.9352C13.7338 14.9075 13.6748 14.8668 13.6251 14.8155L9.5045 10.5705C9.45477 10.5193 9.41533 10.4585 9.38842 10.3915C9.36151 10.3246 9.34766 10.2529 9.34766 10.1804C9.34766 10.108 9.36151 10.0362 9.38842 9.96932C9.41533 9.90239 9.45477 9.84158 9.5045 9.79036C9.55422 9.73913 9.61325 9.6985 9.67822 9.67078C9.74318 9.64305 9.81282 9.62878 9.88314 9.62878C9.95346 9.62878 10.0231 9.64305 10.0881 9.67078C10.153 9.6985 10.2121 9.73913 10.2618 9.79036L14.3824 14.0353C14.4575 14.1124 14.5087 14.2107 14.5295 14.3178C14.5503 14.4249 14.5398 14.5359 14.4992 14.6369C14.4587 14.7378 14.3899 14.824 14.3017 14.8846C14.2135 14.9451 14.1098 14.9774 14.0037 14.9771Z" fill="#212224"/>
</svg>
